<svg version="1.1" viewBox="0.0 0.0 960.0 540.0" fill="none" stroke="none" stroke-linecap="square" stroke-miterlimit="10" xmlns:xlink="http://www.w3.org/1999/xlink" xmlns="http://www.w3.org/2000/svg"><clipPath id="g70c2d28a9e_0_0.0"><path d="m0 0l960.0 0l0 540.0l-960.0 0l0 -540.0z" clip-rule="nonzero"/></clipPath><g clip-path="url(#g70c2d28a9e_0_0.0)"><path fill="#000000" d="m0 0l960.0 0l0 540.0l-960.0 0z" fill-rule="evenodd"/><path fill="#000000" fill-opacity="0.0" d="m0 0l960.0 0l0 401.5748l-960.0 0z" fill-rule="evenodd"/><path fill="#cc0000" d="m63.9375 183.7048q0 -2.625 -0.84375 -4.8125q-0.84375 -2.1875 -2.71875 -4.03125q-1.875 -1.84375 -4.875 -3.4375q-3.0 -1.59375 -7.3125 -3.03125q-6.125 -2.0 -11.0625 -4.46875q-4.9375 -2.46875 -8.4375 -5.75q-3.5 -3.28125 -5.375 -7.625q-1.875 -4.34375 -1.875 -10.15625q0 -5.25 1.6875 -9.59375q1.6875 -4.34375 4.78125 -7.5625q3.09375 -3.21875 7.5 -5.21875q4.40625 -2.0 9.84375 -2.625l0 -13.625l10.0 0l0 13.75q5.4375 0.75 9.71875 3.03125q4.28125 2.28125 7.28125 5.96875q3.0 3.6875 4.59375 8.75q1.59375 5.0625 1.59375 11.375l-14.9375 0q0 -3.9375 -0.9375 -7.09375q-0.9375 -3.15625 -2.6875 -5.375q-1.75 -2.21875 -4.28125 -3.40625q-2.53125 -1.1875 -5.78125 -1.1875q-3.5 0 -6.03125 0.9375q-2.53125 0.9375 -4.15625 2.59375q-1.625 1.65625 -2.4375 4.0q-0.8125 2.34375 -0.8125 5.15625q0 2.6875 0.78125 4.8125q0.78125 2.125 2.65625 3.9375q1.875 1.8125 4.9375 3.40625q3.0625 1.59375 7.625 3.15625q6.1875 2.125 11.09375 4.59375q4.90625 2.46875 8.34375 5.75q3.4375 3.28125 5.25 7.59375q1.8125 4.3125 1.8125 10.0625q0 5.5 -1.75 9.84375q-1.75 4.34375 -5.0 7.5q-3.25 3.15625 -7.875 5.0625q-4.625 1.90625 -10.3125 2.46875l0 12.125l-9.9375 0l0 -12.0625q-5.0625 -0.5 -9.75 -2.3125q-4.6875 -1.8125 -8.3125 -5.21875q-3.625 -3.40625 -5.8125 -8.625q-2.1875 -5.21875 -2.1875 -12.53125l14.9375 0q0 4.875 1.40625 8.0625q1.40625 3.1875 3.65625 5.09375q2.25 1.90625 5.0625 2.6875q2.8125 0.78125 5.6875 0.78125q7.375 0 11.3125 -3.46875q3.9375 -3.46875 3.9375 -9.28125z" fill-rule="nonzero"/><path fill="#cc0000" d="m169.6875 173.1423q0 -7.6875 1.90625 -14.0625q1.90625 -6.375 5.46875 -10.9375q3.5625 -4.5625 8.625 -7.0625q5.0625 -2.5 11.4375 -2.5q5.9375 0 10.1875 2.0q4.25 2.0 7.25 5.6875l0.6875 -6.4375l15.8125 0l0 65.4375q0 6.875 -2.34375 12.25q-2.34375 5.375 -6.5625 9.0625q-4.21875 3.6875 -10.125 5.59375q-5.90625 1.90625 -13.03125 1.90625q-3.0625 0 -6.5625 -0.625q-3.5 -0.625 -6.9375 -1.9375q-3.4375 -1.3125 -6.5 -3.34375q-3.0625 -2.03125 -5.25 -4.84375l7.8125 -10.5625q3.3125 3.75 7.5 5.71875q4.1875 1.96875 9.0625 1.96875q7.3125 0 11.40625 -3.90625q4.09375 -3.90625 4.09375 -11.09375l0 -3.875q-3.0625 3.375 -7.15625 5.25q-4.09375 1.875 -9.46875 1.875q-6.3125 0 -11.34375 -2.59375q-5.03125 -2.59375 -8.59375 -7.15625q-3.5625 -4.5625 -5.46875 -10.84375q-1.90625 -6.28125 -1.90625 -13.65625l0 -1.3125zm17.4375 1.3125q0 4.25 0.84375 7.90625q0.84375 3.65625 2.59375 6.375q1.75 2.71875 4.4375 4.28125q2.6875 1.5625 6.375 1.5625q4.5625 0 7.53125 -1.75q2.96875 -1.75 4.71875 -4.875l0 -28.625q-1.75 -3.1875 -4.71875 -4.90625q-2.96875 -1.71875 -7.40625 -1.71875q-3.6875 0 -6.375 1.59375q-2.6875 1.59375 -4.46875 4.375q-1.78125 2.78125 -2.65625 6.5q-0.875 3.71875 -0.875 7.96875l0 1.3125zm93.9375 34.25q-7.8125 0 -14.1875 -2.5625q-6.375 -2.5625 -10.9375 -6.96875q-4.5625 -4.40625 -7.03125 -10.375q-2.46875 -5.96875 -2.46875 -12.78125l0 -2.5q0 -7.75 2.4375 -14.15625q2.4375 -6.40625 6.8125 -11.03125q4.375 -4.625 10.375 -7.1875q6.0 -2.5625 13.0625 -2.5625q7.3125 0 13.03125 2.40625q5.71875 2.40625 9.6875 6.78125q3.96875 4.375 6.03125 10.53125q2.0625 6.15625 2.0625 13.59375l0 7.375l-45.875 0q0.5 3.4375 2.03125 6.28125q1.53125 2.84375 3.90625 4.90625q2.375 2.0625 5.4375 3.1875q3.0625 1.125 6.6875 1.125q2.5625 0 5.09375 -0.5q2.53125 -0.5 4.84375 -1.46875q2.3125 -0.96875 4.3125 -2.40625q2.0 -1.4375 3.5 -3.375l8.6875 9.375q-1.625 2.3125 -4.21875 4.53125q-2.59375 2.21875 -6.125 3.9375q-3.53125 1.71875 -7.84375 2.78125q-4.3125 1.0625 -9.3125 1.0625zm-2.0625 -56.0625q-2.9375 0 -5.375 1.03125q-2.4375 1.03125 -4.28125 2.96875q-1.84375 1.9375 -3.09375 4.625q-1.25 2.6875 -1.875 6.0l28.5 0l0 -1.375q-0.125 -2.75 -1.0625 -5.1875q-0.9375 -2.4375 -2.6875 -4.21875q-1.75 -1.78125 -4.28125 -2.8125q-2.53125 -1.03125 -5.84375 -1.03125zm62.875 54.8125l0 -54.8125l-17.75 0l0 -12.8125l17.75 0l0 -3.6875q0 -6.6875 2.125 -11.8125q2.125 -5.125 6.0625 -8.625q3.9375 -3.5 9.5625 -5.28125q5.625 -1.78125 12.5625 -1.78125q2.1875 0 4.21875 0.15625q2.03125 0.15625 3.96875 0.40625q1.9375 0.25 3.90625 0.5625q1.96875 0.3125 4.09375 0.6875l-1.125 13.625q-2.375 -0.5 -5.375 -0.875q-3.0 -0.375 -7.0625 -0.375q-8.125 0 -11.8125 3.4375q-3.6875 3.4375 -3.6875 9.875l0 3.6875l24.375 0l0 12.8125l-24.375 0l0 54.8125l-17.4375 0zm108.5625 -68.875q3.9375 0 7.28125 0.53125q3.34375 0.53125 5.40625 1.15625l-2.5625 17.3125q-3.4375 -0.8125 -7.03125 -1.21875q-3.59375 -0.40625 -6.84375 -0.40625q-7.3125 0 -11.71875 2.8125q-4.40625 2.8125 -6.59375 8.0625l0 40.625l-17.375 0l0 -67.625l16.1875 0l0.8125 11.0625q4.125 -5.75 9.875 -9.03125q5.75 -3.28125 12.5625 -3.28125zm70.5 68.875q-0.625 -1.25 -1.0625 -2.875q-0.4375 -1.625 -0.75 -3.4375q-1.4375 1.5625 -3.3125 2.9375q-1.875 1.375 -4.15625 2.40625q-2.28125 1.03125 -5.03125 1.625q-2.75 0.59375 -5.9375 0.59375q-5.1875 0 -9.53125 -1.5q-4.34375 -1.5 -7.46875 -4.1875q-3.125 -2.6875 -4.875 -6.40625q-1.75 -3.71875 -1.75 -8.09375q0 -10.6875 7.96875 -16.53125q7.96875 -5.84375 23.78125 -5.84375l9.6875 0l0 -4.0q0 -4.875 -3.1875 -7.71875q-3.1875 -2.84375 -9.1875 -2.84375q-5.3125 0 -7.75 2.28125q-2.4375 2.28125 -2.4375 6.09375l-17.375 0q0 -4.3125 1.90625 -8.1875q1.90625 -3.875 5.5625 -6.8125q3.65625 -2.9375 8.9375 -4.65625q5.28125 -1.71875 12.09375 -1.71875q6.125 0 11.40625 1.5q5.28125 1.5 9.15625 4.4375q3.875 2.9375 6.0625 7.40625q2.1875 4.46875 2.1875 10.34375l0 29.0q0 5.4375 0.6875 9.0q0.6875 3.5625 2.0 6.125l0 1.0625l-17.625 0zm-16.5625 -12.1875q2.625 0 4.875 -0.625q2.25 -0.625 4.0625 -1.625q1.8125 -1.0 3.125 -2.28125q1.3125 -1.28125 2.0625 -2.59375l0 -11.625l-8.875 0q-4.0625 0 -6.9375 0.78125q-2.875 0.78125 -4.6875 2.1875q-1.8125 1.40625 -2.6875 3.375q-0.875 1.96875 -0.875 4.28125q0 3.5 2.46875 5.8125q2.46875 2.3125 7.46875 2.3125zm49.375 -22.125q0 -7.6875 1.90625 -14.0625q1.90625 -6.375 5.46875 -10.9375q3.5625 -4.5625 8.625 -7.0625q5.0625 -2.5 11.4375 -2.5q5.9375 0 10.1875 2.0q4.25 2.0 7.25 5.6875l0.6875 -6.4375l15.8125 0l0 65.4375q0 6.875 -2.34375 12.25q-2.34375 5.375 -6.5625 9.0625q-4.21875 3.6875 -10.125 5.59375q-5.90625 1.90625 -13.03125 1.90625q-3.0625 0 -6.5625 -0.625q-3.5 -0.625 -6.9375 -1.9375q-3.4375 -1.3125 -6.5 -3.34375q-3.0625 -2.03125 -5.25 -4.84375l7.8125 -10.5625q3.3125 3.75 7.5 5.71875q4.1875 1.96875 9.0625 1.96875q7.3125 0 11.40625 -3.90625q4.09375 -3.90625 4.09375 -11.09375l0 -3.875q-3.0625 3.375 -7.15625 5.25q-4.09375 1.875 -9.46875 1.875q-6.3125 0 -11.34375 -2.59375q-5.03125 -2.59375 -8.59375 -7.15625q-3.5625 -4.5625 -5.46875 -10.84375q-1.90625 -6.28125 -1.90625 -13.65625l0 -1.3125zm17.4375 1.3125q0 4.25 0.84375 7.90625q0.84375 3.65625 2.59375 6.375q1.75 2.71875 4.4375 4.28125q2.6875 1.5625 6.375 1.5625q4.5625 0 7.53125 -1.75q2.96875 -1.75 4.71875 -4.875l0 -28.625q-1.75 -3.1875 -4.71875 -4.90625q-2.96875 -1.71875 -7.40625 -1.71875q-3.6875 0 -6.375 1.59375q-2.6875 1.59375 -4.46875 4.375q-1.78125 2.78125 -2.65625 6.5q-0.875 3.71875 -0.875 7.96875l0 1.3125zm93.0 -51.1875l0 16.5625l25.25 0l0 12.8125l-25.25 0l0 29.0625q0 3.6875 0.84375 6.15625q0.84375 2.46875 2.40625 3.9375q1.5625 1.46875 3.78125 2.09375q2.21875 0.625 4.96875 0.625q2.0 0 4.09375 -0.1875q2.09375 -0.1875 4.0 -0.46875q1.90625 -0.28125 3.5625 -0.59375q1.65625 -0.3125 2.84375 -0.625l1.6875 11.9375q-1.8125 1.0625 -4.25 1.84375q-2.4375 0.78125 -5.1875 1.28125q-2.75 0.5 -5.71875 0.78125q-2.96875 0.28125 -5.84375 0.28125q-5.5625 0 -10.09375 -1.46875q-4.53125 -1.46875 -7.75 -4.5625q-3.21875 -3.09375 -4.96875 -7.875q-1.75 -4.78125 -1.75 -11.46875l0 -30.75l-15.4375 0l0 -12.8125l15.4375 0l0 -16.5625l17.375 0z" fill-rule="nonzero"/><path fill="#ffff00" d="m222.6875 328.3298l-52.0625 0l0 -14.0625l52.0625 0l0 14.0625zm76.8125 0l-52.0625 0l0 -14.0625l52.0625 0l0 14.0625zm14.1875 -1.1875q0 -7.6875 1.90625 -14.0625q1.90625 -6.375 5.46875 -10.9375q3.5625 -4.5625 8.625 -7.0625q5.0625 -2.5 11.4375 -2.5q5.9375 0 10.1875 2.0q4.25 2.0 7.25 5.6875l0.6875 -6.4375l15.8125 0l0 65.4375q0 6.875 -2.34375 12.25q-2.34375 5.375 -6.5625 9.0625q-4.21875 3.6875 -10.125 5.59375q-5.90625 1.90625 -13.03125 1.90625q-3.0625 0 -6.5625 -0.625q-3.5 -0.625 -6.9375 -1.9375q-3.4375 -1.3125 -6.5 -3.34375q-3.0625 -2.03125 -5.25 -4.84375l7.8125 -10.5625q3.3125 3.75 7.5 5.71875q4.1875 1.96875 9.0625 1.96875q7.3125 0 11.40625 -3.90625q4.09375 -3.90625 4.09375 -11.09375l0 -3.875q-3.0625 3.375 -7.15625 5.25q-4.09375 1.875 -9.46875 1.875q-6.3125 0 -11.34375 -2.59375q-5.03125 -2.59375 -8.59375 -7.15625q-3.5625 -4.5625 -5.46875 -10.84375q-1.90625 -6.28125 -1.90625 -13.65625l0 -1.3125zm17.4375 1.3125q0 4.25 0.84375 7.90625q0.84375 3.65625 2.59375 6.375q1.75 2.71875 4.4375 4.28125q2.6875 1.5625 6.375 1.5625q4.5625 0 7.53125 -1.75q2.96875 -1.75 4.71875 -4.875l0 -28.625q-1.75 -3.1875 -4.71875 -4.90625q-2.96875 -1.71875 -7.40625 -1.71875q-3.6875 0 -6.375 1.59375q-2.6875 1.59375 -4.46875 4.375q-1.78125 2.78125 -2.65625 6.5q-0.875 3.71875 -0.875 7.96875l0 1.3125zm93.9375 34.25q-7.8125 0 -14.1875 -2.5625q-6.375 -2.5625 -10.9375 -6.96875q-4.5625 -4.40625 -7.03125 -10.375q-2.46875 -5.96875 -2.46875 -12.78125l0 -2.5q0 -7.75 2.4375 -14.15625q2.4375 -6.40625 6.8125 -11.03125q4.375 -4.625 10.375 -7.1875q6.0 -2.5625 13.0625 -2.5625q7.3125 0 13.03125 2.40625q5.71875 2.40625 9.6875 6.78125q3.96875 4.375 6.03125 10.53125q2.0625 6.15625 2.0625 13.59375l0 7.375l-45.875 0q0.5 3.4375 2.03125 6.28125q1.53125 2.84375 3.90625 4.90625q2.375 2.0625 5.4375 3.1875q3.0625 1.125 6.6875 1.125q2.5625 0 5.09375 -0.5q2.53125 -0.5 4.84375 -1.46875q2.3125 -0.96875 4.3125 -2.40625q2.0 -1.4375 3.5 -3.375l8.6875 9.375q-1.625 2.3125 -4.21875 4.53125q-2.59375 2.21875 -6.125 3.9375q-3.53125 1.71875 -7.84375 2.78125q-4.3125 1.0625 -9.3125 1.0625zm-2.0625 -56.0625q-2.9375 0 -5.375 1.03125q-2.4375 1.03125 -4.28125 2.96875q-1.84375 1.9375 -3.09375 4.625q-1.25 2.6875 -1.875 6.0l28.5 0l0 -1.375q-0.125 -2.75 -1.0625 -5.1875q-0.9375 -2.4375 -2.6875 -4.21875q-1.75 -1.78125 -4.28125 -2.8125q-2.53125 -1.03125 -5.84375 -1.03125zm56.4375 -12.8125l34.625 0l0 69.1875q0 6.75 -1.9375 11.59375q-1.9375 4.84375 -5.625 8.0q-3.6875 3.15625 -9.0 4.65625q-5.3125 1.5 -12.125 1.5q-2.8125 0 -5.6875 -0.21875q-2.875 -0.21875 -5.5 -0.84375l0.875 -14.125q0.75 0.1875 2.09375 0.34375q1.34375 0.15625 2.75 0.25q1.40625 0.09375 2.6875 0.125q1.28125 0.03125 1.90625 0.03125q2.5 0 4.71875 -0.5625q2.21875 -0.5625 3.8125 -1.875q1.59375 -1.3125 2.53125 -3.46875q0.9375 -2.15625 0.9375 -5.40625l0 -55.0l-17.0625 0l0 -14.1875zm15.875 -17.3125q0 -2.0 0.71875 -3.71875q0.71875 -1.71875 2.0 -2.9375q1.28125 -1.21875 3.125 -1.90625q1.84375 -0.6875 4.09375 -0.6875q4.625 0 7.34375 2.59375q2.71875 2.59375 2.71875 6.65625q0 4.0625 -2.71875 6.65625q-2.71875 2.59375 -7.34375 2.59375q-2.25 0 -4.09375 -0.6875q-1.84375 -0.6875 -3.125 -1.90625q-1.28125 -1.21875 -2.0 -2.9375q-0.71875 -1.71875 -0.71875 -3.71875zm92.8125 84.9375q-0.625 -1.25 -1.0625 -2.875q-0.4375 -1.625 -0.75 -3.4375q-1.4375 1.5625 -3.3125 2.9375q-1.875 1.375 -4.15625 2.40625q-2.28125 1.03125 -5.03125 1.625q-2.75 0.59375 -5.9375 0.59375q-5.1875 0 -9.53125 -1.5q-4.34375 -1.5 -7.46875 -4.1875q-3.125 -2.6875 -4.875 -6.40625q-1.75 -3.71875 -1.75 -8.09375q0 -10.6875 7.96875 -16.53125q7.96875 -5.84375 23.78125 -5.84375l9.6875 0l0 -4.0q0 -4.875 -3.1875 -7.71875q-3.1875 -2.84375 -9.1875 -2.84375q-5.3125 0 -7.75 2.28125q-2.4375 2.28125 -2.4375 6.09375l-17.375 0q0 -4.3125 1.90625 -8.1875q1.90625 -3.875 5.5625 -6.8125q3.65625 -2.9375 8.9375 -4.65625q5.28125 -1.71875 12.09375 -1.71875q6.125 0 11.40625 1.5q5.28125 1.5 9.15625 4.4375q3.875 2.9375 6.0625 7.40625q2.1875 4.46875 2.1875 10.34375l0 29.0q0 5.4375 0.6875 9.0q0.6875 3.5625 2.0 6.125l0 1.0625l-17.625 0zm-16.5625 -12.1875q2.625 0 4.875 -0.625q2.25 -0.625 4.0625 -1.625q1.8125 -1.0 3.125 -2.28125q1.3125 -1.28125 2.0625 -2.59375l0 -11.625l-8.875 0q-4.0625 0 -6.9375 0.78125q-2.875 0.78125 -4.6875 2.1875q-1.8125 1.40625 -2.6875 3.375q-0.875 1.96875 -0.875 4.28125q0 3.5 2.46875 5.8125q2.46875 2.3125 7.46875 2.3125zm49.375 -22.125q0 -7.6875 1.90625 -14.0625q1.90625 -6.375 5.46875 -10.9375q3.5625 -4.5625 8.625 -7.0625q5.0625 -2.5 11.4375 -2.5q5.9375 0 10.1875 2.0q4.25 2.0 7.25 5.6875l0.6875 -6.4375l15.8125 0l0 65.4375q0 6.875 -2.34375 12.25q-2.34375 5.375 -6.5625 9.0625q-4.21875 3.6875 -10.125 5.59375q-5.90625 1.90625 -13.03125 1.90625q-3.0625 0 -6.5625 -0.625q-3.5 -0.625 -6.9375 -1.9375q-3.4375 -1.3125 -6.5 -3.34375q-3.0625 -2.03125 -5.25 -4.84375l7.8125 -10.5625q3.3125 3.75 7.5 5.71875q4.1875 1.96875 9.0625 1.96875q7.3125 0 11.40625 -3.90625q4.09375 -3.90625 4.09375 -11.09375l0 -3.875q-3.0625 3.375 -7.15625 5.25q-4.09375 1.875 -9.46875 1.875q-6.3125 0 -11.34375 -2.59375q-5.03125 -2.59375 -8.59375 -7.15625q-3.5625 -4.5625 -5.46875 -10.84375q-1.90625 -6.28125 -1.90625 -13.65625l0 -1.3125zm17.4375 1.3125q0 4.25 0.84375 7.90625q0.84375 3.65625 2.59375 6.375q1.75 2.71875 4.4375 4.28125q2.6875 1.5625 6.375 1.5625q4.5625 0 7.53125 -1.75q2.96875 -1.75 4.71875 -4.875l0 -28.625q-1.75 -3.1875 -4.71875 -4.90625q-2.96875 -1.71875 -7.40625 -1.71875q-3.6875 0 -6.375 1.59375q-2.6875 1.59375 -4.46875 4.375q-1.78125 2.78125 -2.65625 6.5q-0.875 3.71875 -0.875 7.96875l0 1.3125zm93.0 -51.1875l0 16.5625l25.25 0l0 12.8125l-25.25 0l0 29.0625q0 3.6875 0.84375 6.15625q0.84375 2.46875 2.40625 3.9375q1.5625 1.46875 3.78125 2.09375q2.21875 0.625 4.96875 0.625q2.0 0 4.09375 -0.1875q2.09375 -0.1875 4.0 -0.46875q1.90625 -0.28125 3.5625 -0.59375q1.65625 -0.3125 2.84375 -0.625l1.6875 11.9375q-1.8125 1.0625 -4.25 1.84375q-2.4375 0.78125 -5.1875 1.28125q-2.75 0.5 -5.71875 0.78125q-2.96875 0.28125 -5.84375 0.28125q-5.5625 0 -10.09375 -1.46875q-4.53125 -1.46875 -7.75 -4.5625q-3.21875 -3.09375 -4.96875 -7.875q-1.75 -4.78125 -1.75 -11.46875l0 -30.75l-15.4375 0l0 -12.8125l15.4375 0l0 -16.5625l17.375 0z" fill-rule="nonzero"/><path fill="#980000" d="m196.79002 418.33142l741.0079 -38.677155l4.7244263 90.897644l-741.00793 38.677155z" fill-rule="evenodd"/><path stroke="#000000" stroke-width="4.0" stroke-linejoin="round" stroke-linecap="butt" d="m196.79002 418.33142l741.0079 -38.677155l4.7244263 90.897644l-741.00793 38.677155z" fill-rule="evenodd"/><path fill="#000000" d="m223.11214 445.22675l6.9124603 -0.3607788l1.1289368 21.720673q0.22140503 4.259857 -0.4083557 6.592743q-0.85853577 3.0488892 -3.416275 5.0130005q-2.5429688 1.9476929 -6.865204 2.1733093q-5.0868225 0.26550293 -7.9806976 -2.4310608q-2.879074 -2.7130127 -3.180954 -8.220367l6.483444 -1.089447q0.2781067 2.9426575 1.0903473 4.1206665q1.219986 1.7982178 3.513733 1.6784973q2.3093567 -0.12054443 3.1922455 -1.4965515q0.89849854 -1.376831 0.68196106 -5.543091l-1.1516418 -22.157593zm14.238434 -0.74316406l6.92807 -0.3616333l0.96591187 18.58429q0.2295227 4.415924 0.54730225 5.713623q0.56199646 2.0829163 2.2980957 3.275299q1.7361145 1.1923828 4.6384125 1.0408936q2.949112 -0.15393066 4.384613 -1.4336243q1.4347229 -1.2952881 1.6403503 -3.0584106q0.22042847 -1.779541 0.008758545 -5.852173l-0.98620605 -18.974396l6.92807 -0.36160278l0.93673706 18.022552q0.321167 6.1791687 -0.10757446 8.767517q-0.4295349 2.5727844 -1.851471 4.4150085q-1.4071045 1.8258362 -3.8805847 3.0032349q-2.4734802 1.1773987 -6.546051 1.3899841q-4.9151917 0.25653076 -7.517807 -0.7497864q-2.6026154 -1.0063477 -4.1790466 -2.7390137q-1.5616455 -1.749115 -2.1327515 -3.7063904q-0.82424927 -2.9141235 -1.1235199 -8.671967l-0.9513092 -18.303406zm36.509598 32.50052l-1.7834473 -34.31308l6.7408447 -0.35183716l15.233948 22.173584l-1.1905823 -22.906586l6.4443665 -0.33636475l1.7834167 34.31308l-6.9592896 0.3632202l-14.987915 -21.65445l1.1629944 22.376068l-6.444336 0.33636475zm49.861053 -15.260376l-0.30007935 -5.7734375l14.9328 -0.77941895l0.7104492 13.669037q-2.0750427 2.2205505 -6.1264954 4.043579q-4.035858 1.8222351 -8.28009 2.0437622q-5.383301 0.28097534 -9.511078 -1.7722778q-4.112152 -2.0540771 -6.3432007 -6.1464844q-2.231842 -4.107971 -2.4881287 -9.038818q-0.2789917 -5.3677673 1.7514038 -9.651306q2.0303955 -4.2835083 6.2530823 -6.725708q3.203186 -1.8882751 8.118378 -2.144806q6.397522 -0.33392334 10.125885 2.1626282q3.728363 2.4965515 5.003937 7.1707764l-6.814728 1.6387024q-0.8491821 -2.490387 -2.9374695 -3.8364868q-2.0735168 -1.3625183 -5.069458 -1.2061462q-4.54068 0.23699951 -7.0744934 3.2638245q-2.5190125 3.0104065 -2.2246094 8.674622q0.31710815 6.1011353 3.191101 9.017792q2.8740234 2.9166565 7.274292 2.6869812q2.1689148 -0.1131897 4.308838 -1.0854187q2.1555176 -0.973053 3.652649 -2.2716064l-0.22628784 -4.3535156l-7.926697 0.4137268zm21.994232 11.509857l-1.7834167 -34.31308l6.92807 -0.36160278l0.7015381 13.497406l13.575256 -0.7085571l-0.70150757 -13.497406l6.92807 -0.3616333l1.7834167 34.31308l-6.92807 0.36160278l-0.7802124 -15.010986l-13.575256 0.7085571l0.7801819 15.010986l-6.92807 0.3616333zm65.54361 -3.4210815l-7.536621 0.39337158l-3.4014282 -7.6455994l-13.715698 0.71591187l-2.4343872 7.9501953l-7.349365 0.38360596l11.588989 -35.011047l7.3181763 -0.381958l15.530334 33.59552zm-13.469452 -12.90921l-5.38974 -12.486023l-3.9725342 12.974701l9.362274 -0.48867798zm38.442505 -1.0520935l6.8207397 1.7875366q-1.2528076 5.6980286 -4.699768 8.616058q-3.44693 2.9179993 -8.970642 3.2062988q-6.8344727 0.3567505 -11.477203 -4.0791626q-4.643585 -4.4515076 -5.0644836 -12.549957q-0.44525146 -8.566559 3.72406 -13.540649q4.184906 -4.974884 11.39386 -5.351166q6.2882996 -0.32821655 10.414307 3.1958923q2.454895 2.0779724 3.8392944 6.136322l-6.7648926 1.9959717q-0.7472229 -2.6365051 -2.7623901 -4.0803223q-2.0151672 -1.4437866 -4.777008 -1.2996216q-3.8073425 0.19869995 -6.0519714 3.0696106q-2.229828 2.8544922 -1.9111023 8.986847q0.3381958 6.506836 2.8222961 9.146576q2.4841003 2.6397095 6.229004 2.4442444q2.7618713 -0.14416504 4.65271 -1.9952393q1.9056396 -1.8674927 2.583191 -5.6892395zm13.412201 11.957764l-1.7834473 -34.31305l6.92807 -0.36160278l0.79156494 15.229431l13.205017 -15.959991l9.31543 -0.48623657l-12.2256775 14.031342l14.711273 20.245087l-8.972137 0.46829224l-10.261658 -15.611328l-5.319702 6.0198364l0.53933716 10.376617l-6.92807 0.36160278zm34.523315 -1.8019409l-1.7834473 -34.31305l25.434143 -1.3275452l0.30169678 5.804657l-18.506073 0.96591187l0.394989 7.599121l17.226532 -0.8991394l0.30090332 5.7890625l-17.226562 0.8991394l0.48498535 9.331177l19.161407 -1.0001526l0.30090332 5.7890625l-26.089478 1.3617554zm31.987701 -1.6696167l-1.7834473 -34.31305l14.589539 -0.7615051q5.4924927 -0.28668213 8.036987 0.5036316q2.5444336 0.7903137 4.1656494 3.0839233q1.6204224 2.2780151 1.7785645 5.3207703q0.20117188 3.8697815 -1.9464111 6.500946q-2.131958 2.63031 -6.622986 3.521881q2.3150635 1.1934509 3.8637085 2.692871q1.5478516 1.4838562 4.2373047 5.364563l4.529724 6.47583l-8.2855835 0.4324646l-5.397278 -7.21286q-2.8759155 -3.8553467 -3.913269 -4.8494873q-1.0373535 -0.99417114 -2.1646729 -1.3108215q-1.1125488 -0.33309937 -3.499939 -0.2084961l-1.4043579 0.07330322l0.74450684 14.324432l-6.9280396 0.36160278zm5.8988647 -20.162994l5.133667 -0.26797485q4.9776 -0.25979614 6.1884155 -0.7454529q1.2263794 -0.4864502 1.875 -1.5529785q0.64868164 -1.0664978 0.5683594 -2.6112976q-0.090026855 -1.7320251 -1.0657959 -2.7450256q-0.9765625 -1.0286255 -2.6763916 -1.2215576q-0.8482666 -0.06524658 -5.0612793 0.15466309l-5.4144897 0.2826233l0.45251465 8.707001zm29.9859 -0.29779053l-3.6847534 -2.5614014q1.5870361 -1.9760437 3.3226929 -3.8033752q0.6968384 -0.740448 0.87438965 -0.9374695q-0.59783936 -0.062683105 -3.3953857 -0.60510254q-2.006836 -0.38027954 -2.6587524 -0.58096313l1.1746216 -4.191925q3.1224365 1.0730896 5.6188965 2.4448242q-0.75964355 -3.7780457 -0.885376 -6.1966553l4.1661987 -0.21743774q0.0892334 1.7164307 -0.3137207 6.3061523q0.45843506 -0.21166992 1.9658813 -1.0100708q2.0562134 -1.0773926 3.800171 -1.841217l1.4680786 4.163513q-2.5750122 0.7289734 -5.9630127 1.4690552l2.9724731 3.0054016q0.8928833 0.9234619 1.4238281 1.5059509l-3.4663696 2.543518l-3.4228516 -5.04718q-1.3041382 2.6027527 -2.9970093 5.5543823zm17.152405 17.692505l-1.7834473 -34.31308l6.9281006 -0.36160278l1.7834473 34.31305l-6.9281006 0.3616333zm13.598694 -0.70980835l-1.7834473 -34.31305l6.7408447 -0.35183716l15.233948 22.173584l-1.1905518 -22.906586l6.444336 -0.33636475l1.7833862 34.31305l-6.9592285 0.36325073l-14.987976 -21.65445l1.1630249 22.376038l-6.444336 0.33636475zm34.616943 -1.8068237l-1.7834473 -34.31308l6.7408447 -0.35183716l15.233948 22.173584l-1.1905518 -22.906586l6.444336 -0.33636475l1.7833862 34.31308l-6.9592285 0.3632202l-14.987976 -21.65445l1.1630249 22.376068l-6.444336 0.33636475zm34.554504 -1.8035889l-1.7834473 -34.31308l25.434143 -1.3275452l0.30169678 5.8046875l-18.506042 0.96591187l0.3949585 7.599121l17.226562 -0.8991394l0.30090332 5.7890625l-17.226562 0.8991394l0.48498535 9.331146l19.161377 -1.0001221l0.30090332 5.7890625l-26.089478 1.3617554zm32.034546 -1.6720581l-1.7834473 -34.31305l6.7408447 -0.35183716l15.233948 22.173553l-1.1906128 -22.906555l6.444397 -0.33636475l1.7833862 34.31305l-6.9592285 0.36325073l-14.987976 -21.65445l1.1630249 22.376038l-6.444336 0.33636475zm47.872314 -2.4987183l-1.7834473 -34.31305l25.434143 -1.3275452l0.30169678 5.804657l-18.506042 0.9659424l0.3949585 7.599121l17.226562 -0.8991699l0.3008423 5.7890625l-17.226501 0.8991699l0.48498535 9.331146l19.161377 -1.0001526l0.30090332 5.7890625l-26.089478 1.3617554zm30.15747 -35.980225l12.670227 -0.6613159q4.2754517 -0.22317505 6.5564575 0.3149109q3.0733643 0.7314148 5.345093 2.8972168q2.270935 2.150177 3.5654907 5.383972q1.2938232 3.2181702 1.5443726 8.039795q0.22064209 4.2442627 -0.6814575 7.358032q-1.0848999 3.811737 -3.3514404 6.261322q-1.7191772 1.842102 -4.7264404 2.9848022q-2.2556152 0.8530884 -6.094116 1.0534668l-13.044739 0.68084717l-1.7834473 -34.31305zm7.2297363 5.443054l1.1808472 22.71933l5.180481 -0.27038574q2.9022827 -0.15148926 4.164734 -0.5459595q1.6633301 -0.50927734 2.7192993 -1.5657349q1.0707397 -1.0729065 1.6536865 -3.4033203q0.5821533 -2.3460388 0.3753662 -6.3250427q-0.20684814 -3.979004 -1.0192871 -6.0644836q-0.81329346 -2.1011047 -2.138855 -3.2210388q-1.326355 -1.1355286 -3.298706 -1.4550171q-1.4681396 -0.25195312 -5.6967773 -0.03125l-3.1207886 0.16290283zm28.983398 27.072937l-1.7834473 -34.31305l6.9281006 -0.3616333l1.7833862 34.31308l-6.9280396 0.36160278zm21.26007 -1.1096802l-1.4816895 -28.508392l-10.18927 0.53182983l-0.30169678 -5.804657l27.27539 -1.423645l0.30169678 5.804657l-10.158081 0.5302124l1.4817505 28.508392l-6.9281006 0.36160278zm21.338196 -1.113739l-1.7834473 -34.31308l6.9280396 -0.36160278l1.7834473 34.31305l-6.9280396 0.3616333zm11.25116 -17.579132q-0.27252197 -5.24292 1.1029663 -8.88205q1.0339966 -2.6825562 2.9546509 -4.863739q1.9197998 -2.1968079 4.2700806 -3.3364868q3.1437988 -1.5253296 7.3256226 -1.7435913q7.583374 -0.395813 12.384644 4.0787354q4.800415 4.4589844 5.235901 12.838287q0.43225098 8.316895 -3.8486938 13.249878q-4.265381 4.9321594 -11.833191 5.327179q-7.645874 0.39907837 -12.413452 -4.0303345q-4.7527466 -4.445801 -5.178528 -12.637878zm7.1187134 -0.6062317q0.30255127 5.8202515 3.1428833 8.691742q2.856018 2.870636 7.006592 2.6540222q4.13501 -0.21585083 6.6327515 -3.3346558q2.5125122 -3.1352234 2.2026978 -9.095917q-0.3065796 -5.898285 -3.0476074 -8.665436q-2.7410889 -2.7671204 -7.0165405 -2.5439758q-4.2910156 0.2239685 -6.76001 3.294342q-2.468933 3.0703735 -2.1607666 8.999878zm32.513977 15.529449l-1.7834473 -34.31305l6.7408447 -0.35183716l15.233948 22.173584l-1.1905518 -22.906586l6.444336 -0.33636475l1.7833862 34.31305l-6.9592285 0.36325073l-14.987976 -21.65445l1.1630249 22.376038l-6.444336 0.33636475z" fill-rule="nonzero"/></g></svg>